<?xml version="1.0" encoding="utf-8"?>
<!-- Generator: Adobe Illustrator 16.0.0, SVG Export Plug-In . SVG Version: 6.00 Build 0)  -->
<!DOCTYPE svg PUBLIC "-//W3C//DTD SVG 1.1//EN" "http://www.w3.org/Graphics/SVG/1.1/DTD/svg11.dtd">
<svg version="1.1" xmlns="http://www.w3.org/2000/svg" xmlns:xlink="http://www.w3.org/1999/xlink" x="0px" y="0px" width="2500px"
	 height="1000px" viewBox="0 0 2500 1000" enable-background="new 0 0 2500 1000" xml:space="preserve">
<g id="레이어_1">
	<path fill="#FFFFFF" d="M182.91,549.424c-2.585,10.708-13.363,17.293-24.07,14.707c-10.708-2.586-17.292-13.363-14.707-24.071
		c2.587-10.708,13.364-17.292,24.071-14.706C178.912,527.939,185.496,538.716,182.91,549.424z M156.868,574.102l91.784,22.166
		l14.251-58.283l-92.008-22.221l-0.071-0.017c-16.129-3.896-32.345,5.952-36.24,22.082c-3.895,16.128,6.024,32.428,22.153,36.323"/>
	<path fill="#FFFFFF" d="M431.343,806.156c-101.548,0-183.821-82.273-183.821-183.822c0-101.548,82.272-183.82,183.821-183.82
		s183.821,82.272,183.821,183.82C615.164,723.883,532.892,806.156,431.343,806.156z M578.336,622.334
		c0-81.303-65.689-146.992-146.993-146.992s-146.992,65.689-146.992,146.992c0,81.305,65.689,146.993,146.992,146.993
		S578.336,703.639,578.336,622.334z M674.92,613.387c0-145.273,52.506-227.748,119.634-262.828l122.518-64.087
		c6.564-3.434,9.395-10.984,6.319-16.862l-68.21-130.399c-3.076-5.879-10.893-7.861-17.456-4.427L571.294,274.15L602,339l-61,31
		l-31-63.788l-183.39,95.929l0.194-0.092c-82.339,39.1-139.199,122.988-139.199,220.285c0,134.723,109.016,243.738,243.738,243.738
		s243.738-109.016,243.738-243.738c0-3.893-0.091-7.764-0.271-11.61L674.92,613.387z"/>
	<path fill="none" stroke="#000000" stroke-miterlimit="10" d="M131.078,547.302"/>
	<path fill="none" stroke="#000000" stroke-miterlimit="10" d="M157.293,596.993"/>
	<path fill="none" stroke="#000000" stroke-miterlimit="10" d="M157.293,596.993"/>
	<g>
		<g>
			<path fill="none" stroke="#000000" stroke-miterlimit="10" d="M161.534,605.262"/>
		</g>
		<g>
			<path fill="none" stroke="#000000" stroke-miterlimit="10" d="M141.385,535.254"/>
			<path fill="none" stroke="#000000" stroke-miterlimit="10" d="M141.385,573.131"/>
			<path fill="none" stroke="#000000" stroke-miterlimit="10" d="M177.625,561.223"/>
			<path fill="none" stroke="#000000" stroke-miterlimit="10" d="M141.477,572.968"/>
			<path fill="none" stroke="#000000" stroke-miterlimit="10" d="M163.819,603.716"/>
			<path fill="none" stroke="#000000" stroke-miterlimit="10" d="M141.477,572.968"/>
			<path fill="none" stroke="#000000" stroke-miterlimit="10" d="M141.477,572.968"/>
			<path fill="none" stroke="#000000" stroke-miterlimit="10" d="M105.328,561.223"/>
			<path fill="none" stroke="#000000" stroke-miterlimit="10" d="M141.477,572.968"/>
		</g>
	</g>
	<g>
		<text transform="matrix(1 0 0 1 1031.7163 632.2656)" fill="#FFFFFF" font-family="'NanumBarunGothicBold'" font-size="315">WHISTLE</text>
	</g>
</g>
<g id="background" display="none">
</g>
</svg>
